<?xml version="1.0" encoding="UTF-8"?>
<svg version="1.1" xmlns="http://www.w3.org/2000/svg" width="496" height="300">
<path d="M0 0 C163.68 0 327.36 0 496 0 C496 99 496 198 496 300 C332.32 300 168.64 300 0 300 C0 201 0 102 0 0 Z " fill="#FCFBFB" transform="translate(0,0)"/>
<path d="M0 0 C1.13638916 0.58128662 2.27277832 1.16257324 3.44360352 1.76147461 C4.05518814 2.07080429 4.66677277 2.38013397 5.29689026 2.69883728 C7.22704875 3.67778138 9.1497295 4.67047433 11.07250977 5.66381836 C12.38909557 6.33466637 13.70614908 7.0045973 15.02368164 7.67358398 C18.23293054 9.30560078 21.4356326 10.95001667 24.63500977 12.60131836 C24.63500977 13.26131836 24.63500977 13.92131836 24.63500977 14.60131836 C25.25375977 14.72506836 25.87250977 14.84881836 26.51000977 14.97631836 C28.63500977 15.60131836 28.63500977 15.60131836 30.63500977 17.60131836 C30.86206055 19.66430664 30.86206055 19.66430664 30.83032227 22.17163086 C30.82387695 23.0675293 30.81743164 23.96342773 30.81079102 24.88647461 C30.7856543 26.29219727 30.7856543 26.29219727 30.76000977 27.72631836 C30.75098633 28.67120117 30.74196289 29.61608398 30.73266602 30.58959961 C30.70905499 32.92709128 30.67612493 35.26407959 30.63500977 37.60131836 C32.61500977 38.09631836 32.61500977 38.09631836 34.63500977 38.60131836 C34.63500977 39.26131836 34.63500977 39.92131836 34.63500977 40.60131836 C35.47032227 40.84881836 36.30563477 41.09631836 37.16625977 41.35131836 C41.74952403 43.00294512 45.82381598 45.31265274 50.06860352 47.67944336 C53.84678153 49.75010125 57.47962598 51.37009353 61.63500977 52.60131836 C61.63500977 53.26131836 61.63500977 53.92131836 61.63500977 54.60131836 C62.60438477 54.91069336 63.57375977 55.22006836 64.57250977 55.53881836 C67.63500977 56.60131836 67.63500977 56.60131836 68.63500977 57.60131836 C68.7448198 59.57930684 68.78412654 61.56123853 68.79614258 63.54223633 C68.80575012 64.81380585 68.81535767 66.08537537 68.82525635 67.39547729 C68.83010395 68.79481834 68.83438287 70.19416145 68.83813477 71.59350586 C68.84388398 73.0197856 68.84964174 74.4460653 68.85540771 75.87234497 C68.86592707 78.86680462 68.87176347 81.86123735 68.87524414 84.85571289 C68.88072823 88.69497894 68.90475004 92.5338902 68.93321609 96.37304497 C68.95183068 99.32069948 68.95704745 102.26826839 68.95858002 105.21597672 C68.96161022 106.63138899 68.96965117 108.04679963 68.9827652 109.46215439 C68.99979769 111.44190222 68.99610469 113.42179569 68.99145508 115.40161133 C68.99692352 117.09252396 68.99692352 117.09252396 69.00250244 118.81759644 C68.58001831 122.01787341 68.1332547 122.67260775 65.63500977 124.60131836 C63.63162899 124.97604847 63.63162899 124.97604847 61.30149841 124.97554016 C60.41677856 124.98255447 59.53205872 124.98956879 58.62052917 124.99679565 C57.16867973 124.98533005 57.16867973 124.98533005 55.6875 124.97363281 C54.1554744 124.97910881 54.1554744 124.97910881 52.59249878 124.98469543 C49.20936567 124.9928155 45.82670929 124.97917936 42.44360352 124.96459961 C40.09855652 124.96408122 37.75350909 124.9645981 35.40846252 124.96611023 C30.49148073 124.96602044 25.57466268 124.95557702 20.65771484 124.9375 C14.3433187 124.91480026 8.0291617 124.91427033 1.71473598 124.92101765 C-3.12784464 124.92435286 -7.97037037 124.9177362 -12.8129406 124.90788841 C-15.14184215 124.90402932 -17.4707498 124.90289111 -19.79965401 124.90447426 C-23.04884691 124.90484354 -26.29772866 124.89226353 -29.546875 124.87597656 C-30.51679886 124.87845398 -31.48672272 124.8809314 -32.48603821 124.88348389 C-33.36793823 124.87639908 -34.24983826 124.86931427 -35.15846252 124.86201477 C-35.92702859 124.8599619 -36.69559465 124.85790903 -37.4874506 124.85579395 C-39.36499023 124.60131836 -39.36499023 124.60131836 -41.36499023 122.60131836 C-41.61499023 120.10131836 -41.61499023 120.10131836 -41.36499023 117.60131836 C-40.70499023 116.94131836 -40.04499023 116.28131836 -39.36499023 115.60131836 C-34.74499023 115.60131836 -30.12499023 115.60131836 -25.36499023 115.60131836 C-25.36499023 102.40131836 -25.36499023 89.20131836 -25.36499023 75.60131836 C-27.01499023 75.27131836 -28.66499023 74.94131836 -30.36499023 74.60131836 C-30.36499023 73.94131836 -30.36499023 73.28131836 -30.36499023 72.60131836 C-37.69036741 69.66621669 -37.69036741 69.66621669 -45.36499023 70.60131836 C-46.73232051 71.55430613 -48.06763517 72.55506427 -49.36499023 73.60131836 C-51.02072027 74.29470158 -52.68661831 74.96469453 -54.36499023 75.60131836 C-54.37307709 76.18569672 -54.38116394 76.77007507 -54.38949585 77.37216187 C-54.47536587 83.43900811 -54.57486098 89.50552095 -54.68237305 95.57202148 C-54.72072294 97.83791518 -54.75556506 100.10387101 -54.78686523 102.36987305 C-54.8323855 105.62172702 -54.89040099 108.87315096 -54.95092773 112.12475586 C-54.96825455 113.65137344 -54.96825455 113.65137344 -54.9859314 115.20883179 C-55.00580109 116.14965607 -55.02567078 117.09048035 -55.04614258 118.05981445 C-55.05946625 118.89032318 -55.07278992 119.72083191 -55.08651733 120.57650757 C-55.36499023 122.60131836 -55.36499023 122.60131836 -57.36499023 124.60131836 C-61.82653832 125.06234909 -66.31989662 124.9253063 -70.80249023 124.91381836 C-72.05610352 124.92993164 -73.3097168 124.94604492 -74.60131836 124.96264648 C-75.80079102 124.96329102 -77.00026367 124.96393555 -78.23608398 124.96459961 C-79.33879639 124.96758057 -80.44150879 124.97056152 -81.57763672 124.97363281 C-84.36499023 124.60131836 -84.36499023 124.60131836 -86.01295471 123.45582581 C-87.9469454 120.80308476 -87.75987215 118.82085536 -87.78491211 115.55688477 C-87.80877991 113.68947128 -87.80877991 113.68947128 -87.83312988 111.78433228 C-87.83439725 110.42384905 -87.83457393 109.06336442 -87.83374023 107.70288086 C-87.84084185 106.30666802 -87.84854085 104.91045811 -87.85681152 103.51425171 C-87.87026131 100.58713676 -87.87182352 97.66029151 -87.8659668 94.7331543 C-87.86007635 90.98794577 -87.89062994 87.24403616 -87.93108368 83.49907875 C-87.95697947 80.61476714 -87.95983639 77.73076727 -87.95619202 74.84635544 C-87.95788221 73.4660758 -87.96751535 72.08578162 -87.9853363 70.705616 C-88.00755136 68.7720512 -87.99460493 66.83817996 -87.98022461 64.90454102 C-87.98227905 63.80550446 -87.9843335 62.7064679 -87.9864502 61.5741272 C-87.16234863 57.63196426 -85.41320578 56.14262326 -82.36499023 53.60131836 C-79.86499023 52.37866211 -79.86499023 52.37866211 -77.36499023 51.53881836 C-74.34842988 50.43422494 -72.39605817 49.62617271 -69.86499023 47.60131836 C-66.8879761 45.21970705 -64.01281542 44.20908656 -60.46264648 42.88647461 C-55.79053224 40.94810691 -51.34398285 38.56516882 -46.89892578 36.1550293 C-41.871534 33.52904617 -41.871534 33.52904617 -39.42797852 33.87768555 C-37.14392897 34.67885985 -35.00086386 35.6205952 -32.81811523 36.66772461 C-31.55161133 37.27197266 -31.55161133 37.27197266 -30.25952148 37.88842773 C-29.38682617 38.30930664 -28.51413086 38.73018555 -27.61499023 39.16381836 C-26.72682617 39.58856445 -25.83866211 40.01331055 -24.92358398 40.45092773 C-22.73578697 41.49777684 -20.54968173 42.54800763 -18.36499023 43.60131836 C-18.36499023 44.26131836 -18.36499023 44.92131836 -18.36499023 45.60131836 C-17.51678711 45.86686523 -16.66858398 46.13241211 -15.79467773 46.40600586 C-12.23758078 47.64572302 -8.89905625 49.12614452 -5.48999023 50.72631836 C-4.33756836 51.26514648 -3.18514648 51.80397461 -1.99780273 52.35913086 C-1.12897461 52.76905273 -0.26014648 53.17897461 0.63500977 53.60131836 C0.63500977 54.26131836 0.63500977 54.92131836 0.63500977 55.60131836 C1.27438477 55.74569336 1.91375977 55.89006836 2.57250977 56.03881836 C4.63500977 56.60131836 4.63500977 56.60131836 5.63500977 57.60131836 C5.72882279 59.44249865 5.75244931 61.28729477 5.74853516 63.13085938 C5.74842186 64.90258263 5.74842186 64.90258263 5.74830627 66.71009827 C5.74314499 67.99548996 5.7379837 69.28088165 5.73266602 70.60522461 C5.73125107 71.91337631 5.72983612 73.22152802 5.7283783 74.56932068 C5.72455386 78.05294695 5.71472423 81.53653175 5.70367432 85.0201416 C5.69345859 88.57258544 5.68888033 92.12503595 5.68383789 95.67749023 C5.67310188 102.6521184 5.65550569 109.62671212 5.63500977 116.60131836 C10.91500977 116.60131836 16.19500977 116.60131836 21.63500977 116.60131836 C21.63500977 84.92131836 21.63500977 53.24131836 21.63500977 20.60131836 C19.65500977 19.94131836 17.67500977 19.28131836 15.63500977 18.60131836 C13.95684827 17.76500847 12.29959917 16.88538333 10.66625977 15.96459961 C9.76520508 15.47024414 8.86415039 14.97588867 7.93579102 14.46655273 C6.06361262 13.42862957 4.19640932 12.38168296 2.33422852 11.32592773 C1.43317383 10.83543945 0.53211914 10.34495117 -0.39624023 9.83959961 C-1.20641602 9.38625244 -2.0165918 8.93290527 -2.85131836 8.46582031 C-6.99667458 7.04014953 -10.13684869 8.09733864 -14.09399414 9.72119141 C-17.06805057 11.22777535 -20.03442432 12.74622036 -22.98999023 14.28881836 C-24.02639648 14.80637695 -25.06280273 15.32393555 -26.13061523 15.85717773 C-31.70486475 18.74872965 -35.54067398 20.89277611 -38.36499023 26.60131836 C-43.23999023 25.72631836 -43.23999023 25.72631836 -44.36499023 24.60131836 C-45.20532637 19.64333517 -45.20532637 19.64333517 -44.36499023 16.60131836 C-39.69721186 11.73809114 -32.55163422 9.07400755 -26.55639648 6.19506836 C-22.0703707 3.95480089 -17.77505732 1.39363978 -13.47045898 -1.17602539 C-8.58697339 -3.09870588 -4.75952138 -1.97832823 0 0 Z " fill="#306159" transform="translate(257.364990234375,39.398681640625)"/>
<path d="M0 0 C0.53625 0.309375 1.0725 0.61875 1.625 0.9375 C1.625 1.5975 1.625 2.2575 1.625 2.9375 C2.47320312 3.20304687 3.32140625 3.46859375 4.1953125 3.7421875 C7.75240946 4.98190466 11.09093399 6.46232616 14.5 8.0625 C15.65242188 8.60132812 16.80484375 9.14015625 17.9921875 9.6953125 C18.86101562 10.10523437 19.72984375 10.51515625 20.625 10.9375 C20.625 11.5975 20.625 12.2575 20.625 12.9375 C21.511875 13.22625 22.39875 13.515 23.3125 13.8125 C26.11542733 14.76443759 28.87655423 15.83812169 31.625 16.9375 C31.625 34.7575 31.625 52.5775 31.625 70.9375 C26.675 70.9375 21.725 70.9375 16.625 70.9375 C16.61098145 68.96172974 16.61098145 68.96172974 16.59667969 66.94604492 C16.55684486 62.06483992 16.49110427 57.18426954 16.41748047 52.3034668 C16.38923305 50.18994288 16.36803736 48.07631257 16.35400391 45.96264648 C16.33262666 42.926365 16.28600331 39.89136771 16.234375 36.85546875 C16.23314636 35.90850632 16.23191772 34.96154388 16.23065186 33.98588562 C16.27757953 28.96232373 16.27757953 28.96232373 13.734375 24.890625 C12.69023437 24.41882813 12.69023437 24.41882813 11.625 23.9375 C10.45710938 23.35935547 10.45710938 23.35935547 9.265625 22.76953125 C8.47671875 22.43308594 7.6878125 22.09664062 6.875 21.75 C6.07578125 21.40582031 5.2765625 21.06164062 4.453125 20.70703125 C3.54820312 20.32611328 3.54820312 20.32611328 2.625 19.9375 C2.625 19.2775 2.625 18.6175 2.625 17.9375 C-2.46688725 16.44505029 -6.14265921 15.42593488 -11.375 16.9375 C-13.06787785 17.89245674 -14.73357037 18.8965934 -16.375 19.9375 C-17.53 20.411875 -18.685 20.88625 -19.875 21.375 C-23.51018853 22.99785202 -25.67996024 24.00733394 -28.375 26.9375 C-29.13814747 30.26675488 -29.0962459 33.54896284 -29.08203125 36.953125 C-29.09715256 37.92409119 -29.11227386 38.89505737 -29.12785339 39.89544678 C-29.17080013 42.9930328 -29.17957526 46.08964566 -29.1875 49.1875 C-29.21063883 51.2890885 -29.23600288 53.39065376 -29.26367188 55.4921875 C-29.32659344 60.6407113 -29.3588742 65.78862554 -29.375 70.9375 C-34.325 70.9375 -39.275 70.9375 -44.375 70.9375 C-44.5232074 63.32039949 -44.63215515 55.70413615 -44.70458984 48.0859375 C-44.73478159 45.49399194 -44.7757394 42.90214869 -44.82763672 40.31054688 C-44.9003403 36.58698306 -44.93443394 32.8647685 -44.9609375 29.140625 C-44.99190521 27.98008606 -45.02287292 26.81954712 -45.05477905 25.62384033 C-45.05604306 22.60925989 -45.00901162 19.88473523 -44.375 16.9375 C-41.48754883 14.23852539 -41.48754883 14.23852539 -38.375 12.9375 C-37.58738281 12.60105469 -36.79976562 12.26460937 -35.98828125 11.91796875 C-35.22902344 11.65628906 -34.46976563 11.39460938 -33.6875 11.125 C-29.72248039 9.61876883 -26.35737946 7.76599926 -22.8125 5.4375 C-8.62678644 -3.85935183 -8.62678644 -3.85935183 0 0 Z " fill="#FAFBFB" transform="translate(223.375,84.0625)"/>
<path d="M0 0 C14.19 0 28.38 0 43 0 C43 4.95 43 9.9 43 15 C33.43 15 23.86 15 14 15 C14 17.31 14 19.62 14 22 C21.26 22 28.52 22 36 22 C36 26.62 36 31.24 36 36 C28.74 36 21.48 36 14 36 C14 38.31 14 40.62 14 43 C23.57 43 33.14 43 43 43 C43 47.62 43 52.24 43 57 C28.81 57 14.62 57 0 57 C0 38.19 0 19.38 0 0 Z " fill="#FCFCFC" transform="translate(57,206)"/>
<path d="M0 0 C14.19 0 28.38 0 43 0 C43 4.62 43 9.24 43 14 C33.43 14 23.86 14 14 14 C14 16.64 14 19.28 14 22 C21.26 22 28.52 22 36 22 C36 26.62 36 31.24 36 36 C28.74 36 21.48 36 14 36 C14 38.31 14 40.62 14 43 C23.57 43 33.14 43 43 43 C43 47.62 43 52.24 43 57 C28.81 57 14.62 57 0 57 C0 38.19 0 19.38 0 0 Z " fill="#FAFBFB" transform="translate(396,207)"/>
<path d="M0 0 C5.94 0 11.88 0 18 0 C19.12148438 3.39925781 19.12148438 3.39925781 20.265625 6.8671875 C21.00300069 9.09497359 21.74144117 11.32240411 22.47998047 13.54980469 C22.98727612 15.08166385 23.49348811 16.61388238 23.99853516 18.14648438 C26.53318834 25.83576889 29.07727783 33.4776502 32.16894531 40.96533203 C33.31530541 43.77196102 34.29605483 46.62302251 35.25 49.5 C35.58515625 50.5003125 35.9203125 51.500625 36.265625 52.53125 C37 55 37 55 37 57 C32.05 57 27.1 57 22 57 C19.7981069 52.32097716 19 50.37483542 19 45 C12.07 45 5.14 45 -2 45 C-2.33 46.65 -2.66 48.3 -3 50 C-3.66 52.31 -4.32 54.62 -5 57 C-9.95 57 -14.9 57 -20 57 C-18.47654169 49.38270847 -16.43722927 41.77382678 -13.0625 34.75 C-11.0379892 30.46280065 -9.78606622 26.04870073 -8.5 21.5 C-6.77715012 15.4165986 -4.87176763 9.65575197 -2 4 C-1.34 2.68 -0.68 1.36 0 0 Z " fill="#F4F6F6" transform="translate(275,207)"/>
<path d="M0 0 C0.75990234 -0.01224609 1.51980469 -0.02449219 2.30273438 -0.03710938 C7.76077065 -0.05133536 11.57175183 0.41312255 15.890625 4.03515625 C20.88502796 9.43940525 22.6875 12.7858151 22.6875 20.1875 C17.7375 20.1875 12.7875 20.1875 7.6875 20.1875 C7.3575 19.1975 7.0275 18.2075 6.6875 17.1875 C3.01403229 14.73852153 1.02393601 14.87212284 -3.3125 15.1875 C-3.9725 15.8475 -4.6325 16.5075 -5.3125 17.1875 C-5.3125 18.1775 -5.3125 19.1675 -5.3125 20.1875 C-3.37697266 20.49880859 -3.37697266 20.49880859 -1.40234375 20.81640625 C15.07059911 23.71086849 15.07059911 23.71086849 19.7265625 29.6015625 C21.92645762 33.23228372 21.82128893 35.86676414 21.8125 40.125 C21.81636719 41.99478516 21.81636719 41.99478516 21.8203125 43.90234375 C21.6875 47.1875 21.6875 47.1875 20.6875 50.1875 C18.578125 51.94140625 18.578125 51.94140625 15.9375 53.75 C15.07640625 54.34941406 14.2153125 54.94882812 13.328125 55.56640625 C6.83362436 59.55341478 0.95636069 60.14118267 -6.4921875 58.79296875 C-12.26960123 57.05075255 -16.26154279 53.34929388 -19.3125 48.1875 C-20.12939457 45.04634586 -20.26125235 42.46734956 -20.3125 39.1875 C-15.6925 39.1875 -11.0725 39.1875 -6.3125 39.1875 C-5.9825 40.1775 -5.6525 41.1675 -5.3125 42.1875 C-1.6825 42.1875 1.9475 42.1875 5.6875 42.1875 C5.6875 41.1975 5.6875 40.2075 5.6875 39.1875 C4.54152344 38.95675781 3.39554688 38.72601563 2.21484375 38.48828125 C0.68470866 38.15972464 -0.84522914 37.8302483 -2.375 37.5 C-3.12716797 37.35111328 -3.87933594 37.20222656 -4.65429688 37.04882812 C-10.25783727 35.81168284 -13.90908665 33.89862414 -18.3125 30.1875 C-20.86794259 24.52108383 -21.66503446 17.16056998 -19.625 11.16796875 C-15.17723875 2.66162535 -9.14160105 0.00763709 0 0 Z " fill="#F7F9F8" transform="translate(148.3125,205.8125)"/>
<path d="M0 0 C2.97 0.99 5.94 1.98 9 3 C9 3.66 9 4.32 9 5 C10.98 5.66 12.96 6.32 15 7 C19.62 9.31 24.24 11.62 29 14 C29 31.82 29 49.64 29 68 C19.43 68 9.86 68 0 68 C0 45.56 0 23.12 0 0 Z " fill="#FDFEFE" transform="translate(288,87)"/>
<path d="M0 0 C13.86 0 27.72 0 42 0 C42 4.62 42 9.24 42 14 C37.38 14 32.76 14 28 14 C28 28.19 28 42.38 28 57 C23.38 57 18.76 57 14 57 C14 42.81 14 28.62 14 14 C9.38 14 4.76 14 0 14 C0 9.38 0 4.76 0 0 Z " fill="#FCFCFC" transform="translate(326,207)"/>
<path d="M0 0 C14.19 0 28.38 0 43 0 C43 4.62 43 9.24 43 14 C38.05 14 33.1 14 28 14 C28 28.19 28 42.38 28 57 C23.38 57 18.76 57 14 57 C14 42.48 14 27.96 14 13 C9.38 13 4.76 13 0 13 C0 8.71 0 4.42 0 0 Z " fill="#FCFCFC" transform="translate(199,207)"/>
<path d="M0 0 C14.19 0 28.38 0 43 0 C43 4.62 43 9.24 43 14 C33.43 14 23.86 14 14 14 C14 16.64 14 19.28 14 22 C21.26 22 28.52 22 36 22 C36 26.62 36 31.24 36 36 C28.74 36 21.48 36 14 36 C14 38.31 14 40.62 14 43 C23.57 43 33.14 43 43 43 C43 47.62 43 52.24 43 57 C28.81 57 14.62 57 0 57 C0 38.19 0 19.38 0 0 Z M3 3 C3 19.83 3 36.66 3 54 C15.21 54 27.42 54 40 54 C40 51.36 40 48.72 40 46 C30.43 46 20.86 46 11 46 C11 41.71 11 37.42 11 33 C18.59 33 26.18 33 34 33 C34 30.03 34 27.06 34 24 C26.41 24 18.82 24 11 24 C11 20.04 11 16.08 11 12 C20.57 12 30.14 12 40 12 C40 9.03 40 6.06 40 3 C27.79 3 15.58 3 3 3 Z " fill="#3E6C64" transform="translate(396,207)"/>
<path d="M0 0 C14.19 0 28.38 0 43 0 C43 4.95 43 9.9 43 15 C33.43 15 23.86 15 14 15 C14 17.31 14 19.62 14 22 C21.26 22 28.52 22 36 22 C36 26.62 36 31.24 36 36 C28.74 36 21.48 36 14 36 C14 38.31 14 40.62 14 43 C23.57 43 33.14 43 43 43 C43 47.62 43 52.24 43 57 C28.81 57 14.62 57 0 57 C0 38.19 0 19.38 0 0 Z M2 3 C2 20.16 2 37.32 2 55 C14.54 55 27.08 55 40 55 C40 52.03 40 49.06 40 46 C30.43 46 20.86 46 11 46 C11 41.71 11 37.42 11 33 C18.59 33 26.18 33 34 33 C34 30.03 34 27.06 34 24 C26.74 24 19.48 24 12 24 C12 20.37 12 16.74 12 13 C13.26444946 13.00785522 13.26444946 13.00785522 14.55444336 13.01586914 C17.67227936 13.03287826 20.79009177 13.04543406 23.90795898 13.05493164 C25.25920386 13.05997057 26.61044326 13.06680177 27.96166992 13.07543945 C29.90020434 13.08752419 31.838778 13.09269828 33.77734375 13.09765625 C34.94515381 13.10289307 36.11296387 13.10812988 37.31616211 13.11352539 C39.91891551 13.30661495 39.91891551 13.30661495 41 12 C41 9.03 41 6.06 41 3 C28.13 3 15.26 3 2 3 Z " fill="#537C75" transform="translate(57,206)"/>
<path d="M0 0 C0.75990234 -0.01224609 1.51980469 -0.02449219 2.30273438 -0.03710938 C7.76077065 -0.05133536 11.57175183 0.41312255 15.890625 4.03515625 C20.88502796 9.43940525 22.6875 12.7858151 22.6875 20.1875 C17.7375 20.1875 12.7875 20.1875 7.6875 20.1875 C7.3575 19.1975 7.0275 18.2075 6.6875 17.1875 C3.01403229 14.73852153 1.02393601 14.87212284 -3.3125 15.1875 C-3.9725 15.8475 -4.6325 16.5075 -5.3125 17.1875 C-5.3125 18.1775 -5.3125 19.1675 -5.3125 20.1875 C-3.37697266 20.49880859 -3.37697266 20.49880859 -1.40234375 20.81640625 C15.07059911 23.71086849 15.07059911 23.71086849 19.7265625 29.6015625 C21.92645762 33.23228372 21.82128893 35.86676414 21.8125 40.125 C21.81636719 41.99478516 21.81636719 41.99478516 21.8203125 43.90234375 C21.6875 47.1875 21.6875 47.1875 20.6875 50.1875 C18.578125 51.94140625 18.578125 51.94140625 15.9375 53.75 C15.07640625 54.34941406 14.2153125 54.94882812 13.328125 55.56640625 C6.83362436 59.55341478 0.95636069 60.14118267 -6.4921875 58.79296875 C-12.26960123 57.05075255 -16.26154279 53.34929388 -19.3125 48.1875 C-20.12939457 45.04634586 -20.26125235 42.46734956 -20.3125 39.1875 C-15.6925 39.1875 -11.0725 39.1875 -6.3125 39.1875 C-5.9825 40.1775 -5.6525 41.1675 -5.3125 42.1875 C-1.6825 42.1875 1.9475 42.1875 5.6875 42.1875 C5.6875 41.1975 5.6875 40.2075 5.6875 39.1875 C4.54152344 38.95675781 3.39554688 38.72601563 2.21484375 38.48828125 C0.68470866 38.15972464 -0.84522914 37.8302483 -2.375 37.5 C-3.12716797 37.35111328 -3.87933594 37.20222656 -4.65429688 37.04882812 C-10.25783727 35.81168284 -13.90908665 33.89862414 -18.3125 30.1875 C-20.86794259 24.52108383 -21.66503446 17.16056998 -19.625 11.16796875 C-15.17723875 2.66162535 -9.14160105 0.00763709 0 0 Z M-17.125 11.3125 C-18.99015568 15.82814007 -18.5404773 20.36620222 -18.3125 25.1875 C-17.6525 25.1875 -16.9925 25.1875 -16.3125 25.1875 C-16.065 25.80625 -15.8175 26.425 -15.5625 27.0625 C-14.09003937 29.56568306 -12.90221163 30.01795281 -10.3125 31.1875 C-9.9825 31.8475 -9.6525 32.5075 -9.3125 33.1875 C-7.0561493 33.60782924 -4.78005046 33.92450757 -2.5 34.1875 C5.20407618 35.08165185 5.20407618 35.08165185 8.6875 37.1875 C8.875 40.0625 8.875 40.0625 8.6875 43.1875 C5.34168921 45.41804053 4.04740189 45.48433128 0.125 45.5 C-0.84566406 45.51675781 -1.81632812 45.53351563 -2.81640625 45.55078125 C-3.64011719 45.43089844 -4.46382812 45.31101563 -5.3125 45.1875 C-5.9725 44.1975 -6.6325 43.2075 -7.3125 42.1875 C-9.74943311 41.82333953 -9.74943311 41.82333953 -12.4375 42 C-13.34757813 42.02707031 -14.25765625 42.05414063 -15.1953125 42.08203125 C-15.89398438 42.11683594 -16.59265625 42.15164062 -17.3125 42.1875 C-16.8145163 45.92237777 -16.43758244 47.99987635 -14.3125 51.1875 C-13.3225 51.1875 -12.3325 51.1875 -11.3125 51.1875 C-10.9825 52.1775 -10.6525 53.1675 -10.3125 54.1875 C-6.44532889 56.30389728 -3.03866265 56.4300147 1.3125 56.375 C2.43914062 56.36855469 3.56578125 56.36210937 4.7265625 56.35546875 C7.74478226 56.3139556 7.74478226 56.3139556 10.6875 55.1875 C10.6875 54.5275 10.6875 53.8675 10.6875 53.1875 C11.265 52.98125 11.8425 52.775 12.4375 52.5625 C16.35600794 50.16785626 18.26333774 46.45998678 19.6875 42.1875 C20.32762739 36.38595808 20.32762739 36.38595808 17.6875 31.4375 C11.75375501 26.98719125 6.31654204 24.82387917 -1.015625 23.6796875 C-3.4413641 23.15988626 -5.23254903 22.54318233 -7.3125 21.1875 C-8.0625 18.0625 -8.0625 18.0625 -8.3125 15.1875 C-7.6525 15.1875 -6.9925 15.1875 -6.3125 15.1875 C-6.3125 14.5275 -6.3125 13.8675 -6.3125 13.1875 C0.70636792 12.74497943 4.16404008 12.65543032 9.6875 17.1875 C13.04614815 17.54213987 16.32285139 17.42269874 19.6875 17.1875 C19.23214562 12.29244044 18.22743401 9.63666647 14.6875 6.1875 C3.51280893 -2.0790787 -8.77399534 1.52166695 -17.125 11.3125 Z " fill="#688B85" transform="translate(148.3125,205.8125)"/>
<path d="M0 0 C14.19 0 28.38 0 43 0 C43 4.62 43 9.24 43 14 C38.05 14 33.1 14 28 14 C28 28.19 28 42.38 28 57 C23.38 57 18.76 57 14 57 C14 42.48 14 27.96 14 13 C9.38 13 4.76 13 0 13 C0 8.71 0 4.42 0 0 Z M2 3 C2 5.64 2 8.28 2 11 C6.95 11 11.9 11 17 11 C17 24.86 17 38.72 17 53 C19.64 53 22.28 53 25 53 C25 39.14 25 25.28 25 11 C29.62 11 34.24 11 39 11 C39 8.36 39 5.72 39 3 C26.79 3 14.58 3 2 3 Z " fill="#71928D" transform="translate(199,207)"/>
<path d="M0 0 C13.86 0 27.72 0 42 0 C42 4.62 42 9.24 42 14 C37.38 14 32.76 14 28 14 C28 28.19 28 42.38 28 57 C23.38 57 18.76 57 14 57 C14 42.81 14 28.62 14 14 C9.38 14 4.76 14 0 14 C0 9.38 0 4.76 0 0 Z M2 3 C2 5.64 2 8.28 2 11 C6.95 11 11.9 11 17 11 C17 25.19 17 39.38 17 54 C19.64 54 22.28 54 25 54 C25.33 40.14 25.66 26.28 26 12 C30.62 11.67 35.24 11.34 40 11 C40 8.36 40 5.72 40 3 C27.46 3 14.92 3 2 3 Z " fill="#688C86" transform="translate(326,207)"/>
<path d="M0 0 C5.94 0 11.88 0 18 0 C19.12148438 3.39925781 19.12148438 3.39925781 20.265625 6.8671875 C21.00300069 9.09497359 21.74144117 11.32240411 22.47998047 13.54980469 C22.98727612 15.08166385 23.49348811 16.61388238 23.99853516 18.14648438 C26.53318834 25.83576889 29.07727783 33.4776502 32.16894531 40.96533203 C33.31530541 43.77196102 34.29605483 46.62302251 35.25 49.5 C35.58515625 50.5003125 35.9203125 51.500625 36.265625 52.53125 C37 55 37 55 37 57 C32.05 57 27.1 57 22 57 C19.7981069 52.32097716 19 50.37483542 19 45 C12.07 45 5.14 45 -2 45 C-2.33 46.65 -2.66 48.3 -3 50 C-3.66 52.31 -4.32 54.62 -5 57 C-9.95 57 -14.9 57 -20 57 C-18.47654169 49.38270847 -16.43722927 41.77382678 -13.0625 34.75 C-11.0379892 30.46280065 -9.78606622 26.04870073 -8.5 21.5 C-6.77715012 15.4165986 -4.87176763 9.65575197 -2 4 C-1.34 2.68 -0.68 1.36 0 0 Z M1 2 C0.5875 3.2375 0.175 4.475 -0.25 5.75 C-0.65992188 6.97783203 -0.65992188 6.97783203 -1.078125 8.23046875 C-1.71663752 10.14871186 -2.351832 12.06806141 -2.984375 13.98828125 C-3.31953125 15.00277344 -3.6546875 16.01726562 -4 17.0625 C-4.309375 18.00222656 -4.61875 18.94195312 -4.9375 19.91015625 C-5.96168226 22.88856862 -7.05748733 25.83431878 -8.17041016 28.78051758 C-9.725255 32.94034526 -11.20741194 37.12561206 -12.6875 41.3125 C-13.16799805 42.65151367 -13.16799805 42.65151367 -13.65820312 44.01757812 C-14.11163086 45.30245117 -14.11163086 45.30245117 -14.57421875 46.61328125 C-14.98546997 47.77017456 -14.98546997 47.77017456 -15.4050293 48.95043945 C-16.13939148 51.12448179 -16.13939148 51.12448179 -16 54 C-13.03 54 -10.06 54 -7 54 C-6.505 52.741875 -6.01 51.48375 -5.5 50.1875 C-5.2215625 49.47980469 -4.943125 48.77210938 -4.65625 48.04296875 C-3.8470838 45.88158784 -3.8470838 45.88158784 -4 43 C4.25 43 12.5 43 21 43 C21.66 45.97 22.32 48.94 23 52 C23.33 52.66 23.66 53.32 24 54 C26.64 54 29.28 54 32 54 C32.16677282 50.58343976 32.16677282 50.58343976 32 47 C31.34 46.34 30.68 45.68 30 45 C29.26977539 42.95629883 29.26977539 42.95629883 28.59765625 40.45703125 C28.34693359 39.54759766 28.09621094 38.63816406 27.83789062 37.70117188 C27.58201172 36.74791016 27.32613281 35.79464844 27.0625 34.8125 C25.39989427 28.65107878 23.65192885 22.81006634 21 17 C20.30741771 15.00882592 19.64252365 13.0078864 19 11 C18.45993774 9.37446608 17.91818939 7.74949163 17.375 6.125 C16.92125 4.76375 16.4675 3.4025 16 2 C11.05 2 6.1 2 1 2 Z " fill="#507A73" transform="translate(275,207)"/>
<path d="M0 0 C14.19 0 28.38 0 43 0 C43 4.62 43 9.24 43 14 C42.01 14 41.02 14 40 14 C40 10.37 40 6.74 40 3 C27.79 3 15.58 3 3 3 C3 19.83 3 36.66 3 54 C15.21 54 27.42 54 40 54 C40 54.33 40 54.66 40 55 C38.854104 54.99476318 37.70820801 54.98952637 36.52758789 54.98413086 C32.29159318 54.96608283 28.05560188 54.95456872 23.81958008 54.94506836 C21.98331125 54.94002769 20.14704646 54.93319523 18.31079102 54.92456055 C15.67723599 54.91248328 13.04373384 54.90676919 10.41015625 54.90234375 C9.58411392 54.89718246 8.75807159 54.89202118 7.90699768 54.88670349 C5.93763632 54.88650795 3.96838386 54.93795848 2 55 C1.505 55.495 1.505 55.495 1 56 C14.53 56 28.06 56 42 56 C42 52.04 42 48.08 42 44 C32.76 44 23.52 44 14 44 C14 43.67 14 43.34 14 43 C23.57 43 33.14 43 43 43 C43 47.62 43 52.24 43 57 C28.81 57 14.62 57 0 57 C0 38.19 0 19.38 0 0 Z " fill="#648982" transform="translate(396,207)"/>
<path d="M0 0 C0.5775 0.61875 1.155 1.2375 1.75 1.875 C3.80249821 3.81347053 5.43366582 4.90014249 8 6 C8 6.66 8 7.32 8 8 C8.95261719 8.03738281 9.90523437 8.07476562 10.88671875 8.11328125 C12.14097656 8.17902344 13.39523438 8.24476563 14.6875 8.3125 C15.92886719 8.37050781 17.17023438 8.42851562 18.44921875 8.48828125 C22.10235795 9.01475126 24.12054716 9.72133525 27 12 C27.5625 15 27.5625 15 27 18 C24.77108399 20.20305852 23.39229739 20.94267287 20.2734375 21.3984375 C19.31695312 21.39070313 18.36046875 21.38296875 17.375 21.375 C15.93253906 21.38660156 15.93253906 21.38660156 14.4609375 21.3984375 C13.24277344 21.20121094 13.24277344 21.20121094 12 21 C11.34 20.01 10.68 19.02 10 18 C7.57478506 17.41810734 7.57478506 17.41810734 4.875 17.3125 C3.96492187 17.24675781 3.05484375 17.18101562 2.1171875 17.11328125 C1.41851562 17.07589844 0.71984375 17.03851563 0 17 C0.99 19.97 1.98 22.94 3 26 C3.99 26 4.98 26 6 26 C6.33 26.66 6.66 27.32 7 28 C11.30639269 30.35492985 15.53514772 30.23600193 20.3125 30.125 C21.42334961 30.11146484 21.42334961 30.11146484 22.55664062 30.09765625 C24.37123467 30.07424213 26.18566071 30.03837615 28 30 C28 29.34 28 28.68 28 28 C28.763125 27.443125 29.52625 26.88625 30.3125 26.3125 C33.68561934 23.41004848 34.48985015 21.13304168 36 17 C36.495 18.485 36.495 18.485 37 20 C37.66 20 38.32 20 39 20 C38.70463011 23.30019053 38.36539038 24.66235222 35.890625 26.94921875 C35.01921875 27.52285156 34.1478125 28.09648437 33.25 28.6875 C32.38890625 29.26886719 31.5278125 29.85023438 30.640625 30.44921875 C24.07873358 34.30287392 18.2818378 34.95603157 10.8203125 33.60546875 C5.04289877 31.86325255 1.05095721 28.16179388 -2 23 C-2.81689457 19.85884586 -2.94875235 17.27984956 -3 14 C1.62 14 6.24 14 11 14 C11.33 14.99 11.66 15.98 12 17 C15.63 17 19.26 17 23 17 C23 16.01 23 15.02 23 14 C21.85402344 13.76925781 20.70804688 13.53851563 19.52734375 13.30078125 C17.99720866 12.97222464 16.46727086 12.6427483 14.9375 12.3125 C14.18533203 12.16361328 13.43316406 12.01472656 12.65820312 11.86132812 C7.05985824 10.6253299 3.47646067 8.58473544 -1 5 C-0.67 3.35 -0.34 1.7 0 0 Z " fill="#618680" transform="translate(131,231)"/>
<path d="M0 0 C13.86 0 27.72 0 42 0 C42 4.62 42 9.24 42 14 C37.38 14 32.76 14 28 14 C28 28.19 28 42.38 28 57 C23.38 57 18.76 57 14 57 C14 42.81 14 28.62 14 14 C14.33 14 14.66 14 15 14 C15 27.86 15 41.72 15 56 C18.96 56 22.92 56 27 56 C26.67 41.15 26.34 26.3 26 11 C30.62 11 35.24 11 40 11 C40 8.36 40 5.72 40 3 C38.85934082 3.01571045 37.71868164 3.0314209 36.54345703 3.04760742 C32.3205468 3.10181524 28.09766744 3.13631653 23.87451172 3.16479492 C22.04503207 3.17990251 20.21558875 3.20038968 18.38623047 3.22631836 C15.76000008 3.26261585 13.13424751 3.27970615 10.5078125 3.29296875 C9.68693146 3.30845261 8.86605042 3.32393646 8.02029419 3.33988953 C5.71533203 3.34057617 5.71533203 3.34057617 2 3 C1.34 2.01 0.68 1.02 0 0 Z " fill="#698C86" transform="translate(326,207)"/>
<path d="M0 0 C12.87 0 25.74 0 39 0 C39 2.97 39 5.94 39 9 C38 10 38 10 35.31616211 10.11352539 C34.14835205 10.10828857 32.98054199 10.10305176 31.77734375 10.09765625 C30.51728516 10.09443359 29.25722656 10.09121094 27.95898438 10.08789062 C26.61848891 10.07953403 25.27799412 10.07106907 23.9375 10.0625 C22.59310058 10.0574866 21.2486994 10.05292342 19.90429688 10.04882812 C16.60282059 10.03699488 13.30143197 10.02050971 10 10 C10 13.63 10 17.26 10 21 C17.26 21 24.52 21 32 21 C32 23.97 32 26.94 32 30 C31.67 30 31.34 30 31 30 C31 27.36 31 24.72 31 22 C23.74 22 16.48 22 9 22 C9 17.38 9 12.76 9 8 C18.24 8 27.48 8 37 8 C37 5.69 37 3.38 37 1 C25.12 1 13.24 1 1 1 C1 17.5 1 34 1 51 C13.21 51 25.42 51 38 51 C38 51.33 38 51.66 38 52 C25.46 52 12.92 52 0 52 C0 34.84 0 17.68 0 0 Z " fill="#B0C3C0" transform="translate(59,209)"/>
<path d="M0 0 C0.33 0 0.66 0 1 0 C1 3.96 1 7.92 1 12 C-8.57 12 -18.14 12 -28 12 C-28 14.97 -28 17.94 -28 21 C-20.74 21 -13.48 21 -6 21 C-6 24.96 -6 28.92 -6 33 C-16.395 33.495 -16.395 33.495 -27 34 C-27.33 36.64 -27.66 39.28 -28 42 C-18.43 42 -8.86 42 1 42 C1 45.96 1 49.92 1 54 C0.34 54 -0.32 54 -1 54 C-1 50.7 -1 47.4 -1 44 C-10.57 44 -20.14 44 -30 44 C-30 39.71 -30 35.42 -30 31 C-22.41 31 -14.82 31 -7 31 C-7 28.03 -7 25.06 -7 22 C-14.26 22 -21.52 22 -29 22 C-29 18.37 -29 14.74 -29 11 C-19.76 10.67 -10.52 10.34 -1 10 C-0.67 6.7 -0.34 3.4 0 0 Z " fill="#3D6B63" transform="translate(98,208)"/>
<path d="M0 0 C14.19 0 28.38 0 43 0 C43 4.95 43 9.9 43 15 C33.43 15 23.86 15 14 15 C14 17.31 14 19.62 14 22 C21.26 22 28.52 22 36 22 C36 26.62 36 31.24 36 36 C28.74 36 21.48 36 14 36 C14 35.67 14 35.34 14 35 C20.93 35 27.86 35 35 35 C35 31.04 35 27.08 35 23 C27.74 23 20.48 23 13 23 C13 20.03 13 17.06 13 14 C22.57 14 32.14 14 42 14 C41.505 8.555 41.505 8.555 41 3 C39.82904785 3.01571045 38.6580957 3.0314209 37.45166016 3.04760742 C33.11693166 3.10181196 28.78223324 3.13631537 24.44726562 3.16479492 C22.56928474 3.17990325 20.69133924 3.20039094 18.81347656 3.22631836 C16.11774981 3.26261246 13.42248854 3.27970545 10.7265625 3.29296875 C9.88380768 3.30845261 9.04105286 3.32393646 8.17276001 3.33988953 C5.80712891 3.34057617 5.80712891 3.34057617 2 3 C1.34 2.01 0.68 1.02 0 0 Z " fill="#7A9994" transform="translate(57,206)"/>
<path d="M0 0 C2.48862084 2.20472794 3.58231203 4.00953315 4.60546875 7.16015625 C4.86650391 7.95357422 5.12753906 8.74699219 5.39648438 9.56445312 C5.65751953 10.38880859 5.91855469 11.21316406 6.1875 12.0625 C6.46013672 12.89072266 6.73277344 13.71894531 7.01367188 14.57226562 C9 20.69055451 9 20.69055451 9 23 C3.72 23 -1.56 23 -7 23 C-6.29837419 18.08861931 -5.62596903 14.37310966 -4.0625 9.8125 C-3.72347656 8.80832031 -3.38445312 7.80414063 -3.03515625 6.76953125 C-2.15321217 4.40991483 -1.18189316 2.22068716 0 0 Z " fill="#698C86" transform="translate(283,218)"/>
<path d="M0 0 C13.53 0 27.06 0 41 0 C41 4.29 41 8.58 41 13 C40.34 13 39.68 13 39 13 C39 9.37 39 5.74 39 2 C26.79 2 14.58 2 2 2 C2 18.83 2 35.66 2 53 C14.21 53 26.42 53 39 53 C39 53.33 39 53.66 39 54 C26.46 54 13.92 54 1 54 C0.67 36.18 0.34 18.36 0 0 Z " fill="#74958F" transform="translate(397,208)"/>
<path d="M0 0 C9.57 0 19.14 0 29 0 C29 0.66 29 1.32 29 2 C20.42 2 11.84 2 3 2 C3 4.64 3 7.28 3 10 C10.26 10 17.52 10 25 10 C25 14.62 25 19.24 25 24 C17.74 24 10.48 24 3 24 C3 26.31 3 28.62 3 31 C2.67 31 2.34 31 2 31 C2 28.36 2 25.72 2 23 C9.26 23 16.52 23 24 23 C24 19.04 24 15.08 24 11 C16.08 11.33 8.16 11.66 0 12 C0 8.04 0 4.08 0 0 Z " fill="#577F78" transform="translate(407,219)"/>
<path d="M0 0 C1.69946788 2.54920182 2.56531331 4.32099564 3.5078125 7.16015625 C3.77207031 7.95357422 4.03632813 8.74699219 4.30859375 9.56445312 C4.57800781 10.38880859 4.84742188 11.21316406 5.125 12.0625 C5.40214844 12.89072266 5.67929687 13.71894531 5.96484375 14.57226562 C8 20.73287408 8 20.73287408 8 23 C3.05 23 -1.9 23 -7 23 C-9.66464729 17.77729131 -10.32854177 14.9180497 -9 9 C-6.54176828 12.68734758 -5.98757384 15.69699971 -5 20 C-2.36 20 0.28 20 3 20 C2.67039784 14.98464948 2.67039784 14.98464948 0 11 C-0.703125 8.90625 -0.703125 8.90625 -1.25 6.5 C-1.44078125 5.7059375 -1.6315625 4.911875 -1.828125 4.09375 C-1.88484375 3.4028125 -1.9415625 2.711875 -2 2 C-1.34 1.34 -0.68 0.68 0 0 Z " fill="#5B827B" transform="translate(304,241)"/>
<path d="M0 0 C13.53 0 27.06 0 41 0 C41 0.33 41 0.66 41 1 C28.13 1 15.26 1 2 1 C2 4.3 2 7.6 2 11 C6.62 11 11.24 11 16 11 C16 24.86 16 38.72 16 53 C15.67 53 15.34 53 15 53 C15 39.8 15 26.6 15 13 C10.05 13 5.1 13 0 13 C0 8.71 0 4.42 0 0 Z " fill="#35655D" transform="translate(326,208)"/>
<path d="M0 0 C13.71003285 -0.10360226 27.32497747 -0.04049084 41 1 C41 1.33 41 1.66 41 2 C28.13 2 15.26 2 2 2 C2 5.3 2 8.6 2 12 C6.29 12 10.58 12 15 12 C14.67 12.66 14.34 13.32 14 14 C7.07 13.505 7.07 13.505 0 13 C0 8.71 0 4.42 0 0 Z " fill="#426E67" transform="translate(199,207)"/>
<path d="M0 0 C1.28132813 0.00902344 2.56265625 0.01804688 3.8828125 0.02734375 C4.87023437 0.03894531 5.85765625 0.05054688 6.875 0.0625 C6.875 0.3925 6.875 0.7225 6.875 1.0625 C6.22273438 1.09988281 5.57046875 1.13726562 4.8984375 1.17578125 C-3.38732053 1.79904623 -8.50067982 3.65702424 -14.125 10.0625 C-16.55140885 13.71884712 -16.32973689 17.0067079 -16.25 21.3125 C-16.23195312 22.57578125 -16.21390625 23.8390625 -16.1953125 25.140625 C-16.17210937 26.10484375 -16.14890625 27.0690625 -16.125 28.0625 C-18.125 27.0625 -18.125 27.0625 -18.73046875 25.30078125 C-19.68918454 19.86173027 -20.14606516 14.25666272 -17.5 9.25 C-12.48894106 2.52463142 -8.43190028 -0.07665364 0 0 Z " fill="#4C766F" transform="translate(147.125,205.9375)"/>
<path d="M0 0 C3.14464367 4.71696551 4.46143827 10.06652605 6.1875 15.4375 C6.56841797 16.58283203 6.94933594 17.72816406 7.34179688 18.90820312 C7.69693359 20.00970703 8.05207031 21.11121094 8.41796875 22.24609375 C8.74563232 23.25341553 9.0732959 24.2607373 9.41088867 25.29858398 C10.00432633 28.01983873 9.94254378 29.41828305 9 32 C8.04902985 29.62257463 7.09824616 27.24507727 6.1484375 24.8671875 C5.40726437 23.01677567 4.66271644 21.16771035 3.9140625 19.3203125 C2.92964683 16.88517899 1.96303543 14.44364937 1 12 C0.566875 10.9275 0.13375 9.855 -0.3125 8.75 C-1.12225021 5.51099916 -0.76721081 3.2222854 0 0 Z " fill="#4A756D" transform="translate(294,212)"/>
<path d="M0 0 C6.27 0 12.54 0 19 0 C19 4.62 19 9.24 19 14 C14.05 14 9.1 14 4 14 C4 13.67 4 13.34 4 13 C8.29 13 12.58 13 17 13 C16.67 12.34 16.34 11.68 16 11 C15.86440682 7.99525503 15.95700984 5.00931153 16 2 C10.72 1.67 5.44 1.34 0 1 C0 0.67 0 0.34 0 0 Z " fill="#6E908A" transform="translate(223,207)"/>
<path d="M0 0 C2.45823172 3.68734758 3.01242616 6.69699971 4 11 C6.64 11 9.28 11 12 11 C12.33 9.68 12.66 8.36 13 7 C13.33 8.65 13.66 10.3 14 12 C14.99 12 15.98 12 17 12 C17 12.66 17 13.32 17 14 C12.05 14 7.1 14 2 14 C-0.66464729 8.77729131 -1.32854177 5.9180497 0 0 Z " fill="#74958F" transform="translate(295,250)"/>
<path d="M0 0 C0.33 0.99 0.66 1.98 1 3 C1.66 3 2.32 3 3 3 C2.70363974 6.30555675 2.34804646 7.67257851 -0.109375 9.984375 C-1.41648438 10.85835938 -1.41648438 10.85835938 -2.75 11.75 C-3.61109375 12.34296875 -4.4721875 12.9359375 -5.359375 13.546875 C-10.80002814 16.54084389 -15.08266097 15.90264494 -21 15 C-21 14.67 -21 14.34 -21 14 C-14.565 13.505 -14.565 13.505 -8 13 C-8 12.34 -8 11.68 -8 11 C-6.8553125 10.1646875 -6.8553125 10.1646875 -5.6875 9.3125 C-2.31438066 6.41004848 -1.51014985 4.13304168 0 0 Z " fill="#6B8E88" transform="translate(167,248)"/>
<path d="M0 0 C0.268125 0.556875 0.53625 1.11375 0.8125 1.6875 C1.99088683 4.07880579 1.99088683 4.07880579 3.625 6.5 C5 9 5 9 5 13 C2.03 13 -0.94 13 -4 13 C-3.40895235 8.15340923 -2.02055843 4.39251833 0 0 Z " fill="#F2F5F4" transform="translate(283,225)"/>
<path d="M0 0 C2 2 2 2 2 4 C1.01 3.67 0.02 3.34 -1 3 C-4.54178598 2.74996036 -4.54178598 2.74996036 -8 3 C-8.66 3.66 -9.32 4.32 -10 5 C-10 5.99 -10 6.98 -10 8 C-7.525 8.99 -7.525 8.99 -5 10 C-5 10.33 -5 10.66 -5 11 C-7.875 11.125 -7.875 11.125 -11 11 C-13 9 -13 9 -13.125 5.875 C-13.08375 4.92625 -13.0425 3.9775 -13 3 C-12.34 3 -11.68 3 -11 3 C-11 2.34 -11 1.68 -11 1 C-7.31620978 -0.17881287 -3.84458427 -0.21358801 0 0 Z " fill="#59807A" transform="translate(153,218)"/>
<path d="M0 0 C0.74886475 0.00523682 1.49772949 0.01047363 2.26928711 0.01586914 C3.07817383 0.0190918 3.88706055 0.02231445 4.72045898 0.02563477 C5.5705957 0.03401367 6.42073242 0.04239258 7.29663086 0.05102539 C8.15063477 0.05553711 9.00463867 0.06004883 9.88452148 0.06469727 C12.00108749 0.07652166 14.11761771 0.0944577 16.23413086 0.11352539 C16.56413086 2.75352539 16.89413086 5.39352539 17.23413086 8.11352539 C16.57413086 7.78352539 15.91413086 7.45352539 15.23413086 7.11352539 C14.90413086 5.46352539 14.57413086 3.81352539 14.23413086 2.11352539 C9.28413086 2.11352539 4.33413086 2.11352539 -0.76586914 2.11352539 C-1.09586914 3.10352539 -1.42586914 4.09352539 -1.76586914 5.11352539 C-2.32836914 3.17602539 -2.32836914 3.17602539 -2.76586914 1.11352539 C-1.76586914 0.11352539 -1.76586914 0.11352539 0 0 Z " fill="#46726A" transform="translate(276.765869140625,206.886474609375)"/>
<path d="M0 0 C0.66 0 1.32 0 2 0 C2.33 1.98 2.66 3.96 3 6 C-0.42094242 8.28062828 -1.68187222 8.21925007 -5.6875 8.125 C-7.17830078 8.09792969 -7.17830078 8.09792969 -8.69921875 8.0703125 C-9.45847656 8.04710937 -10.21773437 8.02390625 -11 8 C-11.66 6.68 -12.32 5.36 -13 4 C-12.34 3.34 -11.68 2.68 -11 2 C-11 2.66 -11 3.32 -11 4 C-7.37 4 -3.74 4 0 4 C0 2.68 0 1.36 0 0 Z " fill="#6F918B" transform="translate(154,244)"/>
<path d="M0 0 C0.99 0 1.98 0 3 0 C2.1016367 4.00649379 0.74851515 7.8646946 -0.5625 11.75 C-0.79646484 12.44738281 -1.03042969 13.14476562 -1.27148438 13.86328125 C-1.84629379 15.5759787 -2.42296275 17.28805186 -3 19 C-5 16 -5 16 -4.875 12.875 C-3.82974874 8.24603015 -2.07199318 4.24999531 0 0 Z " fill="#557D76" transform="translate(273,211)"/>
<path d="M0 0 C0.33 0 0.66 0 1 0 C1.34833144 4.87664009 0.41685712 7.77050005 -2 12 C1.63 12 5.26 12 9 12 C9 12.33 9 12.66 9 13 C4.71 13 0.42 13 -4 13 C-3.50269348 8.02693484 -2.44697666 4.36200187 0 0 Z " fill="#46726A" transform="translate(260,250)"/>
<path d="M0 0 C0.33 0.99 0.66 1.98 1 3 C4.63 3 8.26 3 12 3 C12.33 2.34 12.66 1.68 13 1 C13 1.66 13 2.32 13 3 C13.66 3 14.32 3 15 3 C15 3.66 15 4.32 15 5 C9.72 5 4.44 5 -1 5 C-0.67 3.35 -0.34 1.7 0 0 Z " fill="#4F7972" transform="translate(277,236)"/>
<path d="M0 0 C1.9375 2.0625 1.9375 2.0625 3 4 C2.01 4.33 1.02 4.66 0 5 C-0.825 4.54625 -1.65 4.0925 -2.5 3.625 C-7.25880908 1.41555293 -11.81053909 1.26778357 -17 1 C-17 0.67 -17 0.34 -17 0 C-5.61320755 -1.48921833 -5.61320755 -1.48921833 0 0 Z " fill="#688C86" transform="translate(161,207)"/>
<path d="M0 0 C3.16115776 1.36983503 3.9927092 1.9890638 6 5 C6.1953125 7.91796875 6.1953125 7.91796875 6.125 11.1875 C6.10695312 12.27417969 6.08890625 13.36085937 6.0703125 14.48046875 C6.03550781 15.72763672 6.03550781 15.72763672 6 17 C5.34 17 4.68 17 4 17 C3.96261719 16.25234375 3.92523438 15.5046875 3.88671875 14.734375 C3.82097656 13.74953125 3.75523437 12.7646875 3.6875 11.75 C3.62949219 10.77546875 3.57148438 9.8009375 3.51171875 8.796875 C2.94934638 5.7231451 1.95766461 4.37229063 0 2 C0 1.34 0 0.68 0 0 Z " fill="#4E7870" transform="translate(164,234)"/>
<path d="M0 0 C0.99 0 1.98 0 3 0 C2.21302675 3.41021743 1.12880057 6.68885166 0 10 C3.3 9.67 6.6 9.34 10 9 C10 9.66 10 10.32 10 11 C6.37 11 2.74 11 -1 11 C-2.0036454 5.98177299 -1.79132273 4.53099278 0 0 Z " fill="#698D87" transform="translate(279,228)"/>
<path d="M0 0 C2.45823172 3.68734758 3.01242616 6.69699971 4 11 C3.01 11.33 2.02 11.66 1 12 C-0.80619523 7.53763531 -1.11658501 4.68965706 0 0 Z " fill="#6D908A" transform="translate(294,212)"/>
<path d="M0 0 C4.29 0.33 8.58 0.66 13 1 C13 1.66 13 2.32 13 3 C11.39667209 3.08121924 9.79215974 3.13929134 8.1875 3.1875 C7.29417969 3.22230469 6.40085938 3.25710938 5.48046875 3.29296875 C3 3 3 3 0 0 Z " fill="#5A817A" transform="translate(141,262)"/>
<path d="M0 0 C0.66 0 1.32 0 2 0 C2.33 0.66 2.66 1.32 3 2 C4.64363134 2.72159424 6.31050386 3.39351421 8 4 C7.67 4.99 7.34 5.98 7 7 C1.25 5.375 1.25 5.375 -1 2 C-0.67 1.34 -0.34 0.68 0 0 Z " fill="#73948F" transform="translate(135,257)"/>
<path d="M0 0 C0.5775 0.61875 1.155 1.2375 1.75 1.875 C3.80249821 3.81347053 5.43366582 4.90014249 8 6 C7.01 6.66 6.02 7.32 5 8 C3 7 1 6 -1 5 C-0.67 3.35 -0.34 1.7 0 0 Z " fill="#769691" transform="translate(131,231)"/>
<path d="M0 0 C0.66 0.33 1.32 0.66 2 1 C1.34 3.97 0.68 6.94 0 10 C-0.99 9.34 -1.98 8.68 -3 8 C-1.125 2.25 -1.125 2.25 0 0 Z " fill="#648982" transform="translate(262,243)"/>
<path d="M0 0 C0.66 0.66 1.32 1.32 2 2 C1.7578125 4.1640625 1.7578125 4.1640625 1.125 6.625 C0.92132813 7.44226563 0.71765625 8.25953125 0.5078125 9.1015625 C0.34023438 9.72804687 0.17265625 10.35453125 0 11 C-2 8 -2 8 -1.6875 4.375 C-1 1 -1 1 0 0 Z " fill="#648983" transform="translate(270,219)"/>
<path d="M0 0 C2 2 2 2 2 6 C1.01 6 0.02 6 -1 6 C-1.33 7.65 -1.66 9.3 -2 11 C-2.95465783 8.83032311 -3.14401212 7.43671207 -2.3984375 5.17578125 C-1.64129615 3.4315257 -0.82390802 1.71372869 0 0 Z " fill="#37665E" transform="translate(283,218)"/>
<path d="M0 0 C1.99954746 -0.04254356 4.00041636 -0.04080783 6 0 C7 1 7 1 7.0625 4.0625 C7.041875 5.031875 7.02125 6.00125 7 7 C6.34 7 5.68 7 5 7 C5 5.35 5 3.7 5 2 C3.35 1.67 1.7 1.34 0 1 C0 0.67 0 0.34 0 0 Z " fill="#4E7871" transform="translate(151,242)"/>
<path d="M0 0 C2.75457718 0.37994168 3.82020574 0.8073633 5.75 2.875 C7 5 7 5 7 8 C6.34 8 5.68 8 5 8 C3.1402289 5.40759181 1.42794577 2.85589153 0 0 Z " fill="#4E7871" transform="translate(162,211)"/>
<path d="M0 0 C0.66 0.33 1.32 0.66 2 1 C-0.97 3.97 -3.94 6.94 -7 10 C-7 7 -7 7 -4.625 4.4375 C-3.75875 3.633125 -2.8925 2.82875 -2 2 C-1.34 1.34 -0.68 0.68 0 0 Z " fill="#D5DFDD" transform="translate(139,209)"/>
<path d="M0 0 C0.3403125 0.928125 0.3403125 0.928125 0.6875 1.875 C2.37929835 4.61410209 3.99244161 5.05024472 7 6 C7 6.33 7 6.66 7 7 C5.02 7 3.04 7 1 7 C-0.0625 5.1875 -0.0625 5.1875 -1 3 C-0.67 2.01 -0.34 1.02 0 0 Z " fill="#45716A" transform="translate(141,222)"/>
</svg>
